# xmcd
# 
# Track frame offsets:
#     150
#     21105
#     42172
#     64490
#     82950
#     103237
#     121859
#     139771
#     157516
#     177960
#     196586
#     216996
# 
# Disc length: 3249
# 
# Revision: 0
# Processed by: cddbd v1.5.2PL0 Copyright (c) Steve Scherf et al.
# Submitted via: fre:ac v1.0.31
# 
DISCID=9a0caf0c
DTITLE=Victor Sierra - Go for the Strange
DYEAR=2015
DGENRE=Steampunk
TTITLE0=Unquiet Days
TTITLE1=The fall of Airship Solitaria
TTITLE2=Angels roll out the Night
TTITLE3=All quiet on the Othman front
TTITLE4=El Calor
TTITLE5=The Shadow Company
TTITLE6=El Mundo Superior
TTITLE7=The X-mas Case
TTITLE8=Atlantis
TTITLE9=Dark Passenger
TTITLE10=Ostende
TTITLE11=Long life to the Hydrogen Queen
EXTD=
EXTT0=
EXTT1=
EXTT2=
EXTT3=
EXTT4=
EXTT5=
EXTT6=
EXTT7=
EXTT8=
EXTT9=
EXTT10=
EXTT11=
PLAYORDER=
